<?xml version="1.0" encoding="UTF-8"?>
<svg xmlns="http://www.w3.org/2000/svg" xmlns:xlink="http://www.w3.org/1999/xlink" width="30pt" height="30pt" viewBox="0 0 30 30" version="1.1">
<g id="surface1">
<path style="fill:none;stroke-width:32;stroke-linecap:butt;stroke-linejoin:round;stroke:rgb(80,80,80);stroke-opacity:1;stroke-miterlimit:4;" d="M 96 80 L 416 80 C 442.533333 80 464 101.466667 464 128 L 464 416 C 464 442.533333 442.533333 464 416 464 L 96 464 C 69.466667 464 48 442.533333 48 416 L 48 128 C 48 101.466667 69.466667 80 96 80 Z M 96 80 " transform="matrix(0.0585938,0,0,0.0585938,0,0)"/>
<path style=" stroke:none;fill-rule:nonzero;fill:rgb(80,80,80);fill-opacity:1;" d="M 23.308594 4.6875 L 6.691406 4.6875 C 4.550781 4.6875 2.8125 6.453125 2.8125 8.625 L 2.8125 12.1875 L 3.75 12.1875 C 3.75 11.25 4.6875 10.3125 5.625 10.3125 L 24.375 10.3125 C 25.3125 10.3125 26.25 11.25 26.25 12.1875 L 27.1875 12.1875 L 27.1875 8.625 C 27.1875 6.453125 25.449219 4.6875 23.308594 4.6875 Z M 23.308594 4.6875 "/>
<path style=" stroke:none;fill-rule:nonzero;fill:rgb(80,80,80);fill-opacity:1;" d="M 18.75 13.59375 C 18.75 14.371094 18.121094 15 17.34375 15 C 16.566406 15 15.9375 14.371094 15.9375 13.59375 C 15.9375 12.816406 16.566406 12.1875 17.34375 12.1875 C 18.121094 12.1875 18.75 12.816406 18.75 13.59375 Z M 18.75 13.59375 "/>
<path style=" stroke:none;fill-rule:nonzero;fill:rgb(80,80,80);fill-opacity:1;" d="M 23.4375 13.59375 C 23.4375 14.371094 22.808594 15 22.03125 15 C 21.253906 15 20.625 14.371094 20.625 13.59375 C 20.625 12.816406 21.253906 12.1875 22.03125 12.1875 C 22.808594 12.1875 23.4375 12.816406 23.4375 13.59375 Z M 23.4375 13.59375 "/>
<path style=" stroke:none;fill-rule:nonzero;fill:rgb(80,80,80);fill-opacity:1;" d="M 18.75 18.28125 C 18.75 19.058594 18.121094 19.6875 17.34375 19.6875 C 16.566406 19.6875 15.9375 19.058594 15.9375 18.28125 C 15.9375 17.503906 16.566406 16.875 17.34375 16.875 C 18.121094 16.875 18.75 17.503906 18.75 18.28125 Z M 18.75 18.28125 "/>
<path style=" stroke:none;fill-rule:nonzero;fill:rgb(80,80,80);fill-opacity:1;" d="M 23.4375 18.28125 C 23.4375 19.058594 22.808594 19.6875 22.03125 19.6875 C 21.253906 19.6875 20.625 19.058594 20.625 18.28125 C 20.625 17.503906 21.253906 16.875 22.03125 16.875 C 22.808594 16.875 23.4375 17.503906 23.4375 18.28125 Z M 23.4375 18.28125 "/>
<path style=" stroke:none;fill-rule:nonzero;fill:rgb(80,80,80);fill-opacity:1;" d="M 9.375 18.28125 C 9.375 19.058594 8.746094 19.6875 7.96875 19.6875 C 7.191406 19.6875 6.5625 19.058594 6.5625 18.28125 C 6.5625 17.503906 7.191406 16.875 7.96875 16.875 C 8.746094 16.875 9.375 17.503906 9.375 18.28125 Z M 9.375 18.28125 "/>
<path style=" stroke:none;fill-rule:nonzero;fill:rgb(80,80,80);fill-opacity:1;" d="M 14.0625 18.28125 C 14.0625 19.058594 13.433594 19.6875 12.65625 19.6875 C 11.878906 19.6875 11.25 19.058594 11.25 18.28125 C 11.25 17.503906 11.878906 16.875 12.65625 16.875 C 13.433594 16.875 14.0625 17.503906 14.0625 18.28125 Z M 14.0625 18.28125 "/>
<path style=" stroke:none;fill-rule:nonzero;fill:rgb(80,80,80);fill-opacity:1;" d="M 9.375 22.96875 C 9.375 23.746094 8.746094 24.375 7.96875 24.375 C 7.191406 24.375 6.5625 23.746094 6.5625 22.96875 C 6.5625 22.191406 7.191406 21.5625 7.96875 21.5625 C 8.746094 21.5625 9.375 22.191406 9.375 22.96875 Z M 9.375 22.96875 "/>
<path style=" stroke:none;fill-rule:nonzero;fill:rgb(80,80,80);fill-opacity:1;" d="M 14.0625 22.96875 C 14.0625 23.746094 13.433594 24.375 12.65625 24.375 C 11.878906 24.375 11.25 23.746094 11.25 22.96875 C 11.25 22.191406 11.878906 21.5625 12.65625 21.5625 C 13.433594 21.5625 14.0625 22.191406 14.0625 22.96875 Z M 14.0625 22.96875 "/>
<path style=" stroke:none;fill-rule:nonzero;fill:rgb(80,80,80);fill-opacity:1;" d="M 18.75 22.96875 C 18.75 23.746094 18.121094 24.375 17.34375 24.375 C 16.566406 24.375 15.9375 23.746094 15.9375 22.96875 C 15.9375 22.191406 16.566406 21.5625 17.34375 21.5625 C 18.121094 21.5625 18.75 22.191406 18.75 22.96875 Z M 18.75 22.96875 "/>
<path style="fill:none;stroke-width:32;stroke-linecap:round;stroke-linejoin:round;stroke:rgb(80,80,80);stroke-opacity:1;stroke-miterlimit:4;" d="M 128 48 L 128 80 " transform="matrix(0.0585938,0,0,0.0585938,0,0)"/>
<path style="fill:none;stroke-width:32;stroke-linecap:round;stroke-linejoin:round;stroke:rgb(80,80,80);stroke-opacity:1;stroke-miterlimit:4;" d="M 384 48 L 384 80 " transform="matrix(0.0585938,0,0,0.0585938,0,0)"/>
</g>
</svg>
