<?xml version="1.0" encoding="UTF-8"?>
<svg xmlns="http://www.w3.org/2000/svg" xmlns:xlink="http://www.w3.org/1999/xlink" width="30pt" height="30pt" viewBox="0 0 30 30" version="1.1">
<g id="surface1">
<path style="fill:none;stroke-width:32;stroke-linecap:round;stroke-linejoin:round;stroke:rgb(80,80,80);stroke-opacity:1;stroke-miterlimit:4;" d="M 336 176 L 376 176 C 398.066667 176 416 193.933333 416 216 L 416 424 C 416 446.066667 398.066667 464 376 464 L 136 464 C 113.933333 464 96 446.066667 96 424 L 96 216 C 96 193.933333 113.933333 176 136 176 L 176 176 " transform="matrix(0.0585938,0,0,0.0585938,0,0)"/>
<path style="fill:none;stroke-width:32;stroke-linecap:round;stroke-linejoin:round;stroke:rgb(80,80,80);stroke-opacity:1;stroke-miterlimit:4;" d="M 176 272 L 256 352 L 336 272 " transform="matrix(0.0585938,0,0,0.0585938,0,0)"/>
<path style="fill:none;stroke-width:32;stroke-linecap:round;stroke-linejoin:round;stroke:rgb(80,80,80);stroke-opacity:1;stroke-miterlimit:4;" d="M 256 48 L 256 336 " transform="matrix(0.0585938,0,0,0.0585938,0,0)"/>
</g>
</svg>
